<svg width="500" height="500" xmlns="http://www.w3.org/2000/svg" clip-rule="evenodd">

 <g>
  <title>background</title>
  <rect fill="none" id="canvas_background" height="402" width="582" y="-1" x="-1"/>
 </g>
 <g>
  <title>Layer 1</title>
  <path id="svg_2" stroke-width="10" stroke="#e48762" fill="#ffffff" d="m391,110c0,-24 -20,-44 -44,-44l-194,0c-24,0 -44,20 -44,44l282,0z"/>
  <path id="svg_3" stroke-width="10" stroke="#e48762" fill="#e48762" d="m390,130l-280,0l0,294c0,20 16,36 36,36l208,0c20,0 36,-16 36,-36l0,-294z"/>
  <path id="svg_4" fill="#e48762" d="m307,63c0,-10 -8,-18 -18,-18l-78,0c-10,0 -18,8 -18,18l114,0z"/>
  <path id="svg_5" fill="#ffffff" d="m150,170l10,0c6,0 10,4 10,10l0,230c0,6 -4,10 -10,10l-10,0c-6,0 -10,-4 -10,-10l0,-230c0,-6 4,-10 10,-10zm60,0l10,0c6,0 10,4 10,10l0,230c0,6 -4,10 -10,10l-10,0c-6,0 -10,-4 -10,-10l0,-230c0,-6 4,-10 10,-10zm70,0l10,0c6,0 10,4 10,10l0,230c0,6 -4,10 -10,10l-10,0c-6,0 -10,-4 -10,-10l0,-230c0,-6 4,-10 10,-10zm60,0l10,0c6,0 10,4 10,10l0,230c0,6 -4,10 -10,10l-10,0c-6,0 -10,-4 -10,-10l0,-230c0,-6 4,-10 10,-10z"/>
 </g>
</svg>