<svg width="512" height="512" xmlns="http://www.w3.org/2000/svg">

 <g>
  <title>background</title>
  <rect fill="none" id="canvas_background" height="402" width="582" y="-1" x="-1"/>
 </g>
 <g>
  <title>Layer 1</title>
  <path fill="#e48762" id="svg_2" d="m400,113.3l-80,0l0,-20c0,-16.2 -13.1,-29.3 -29.3,-29.3l-69.5,0c-16.1,0 -29.2,13.1 -29.2,29.3l0,20l-80,0l0,14.7l21.1,0l23.6,290.7c0,16.2 13.1,29.3 29.3,29.3l141,0c16.2,0 29.3,-13.1 29.3,-29.3l23.3,-290.7l20.4,0l0,-14.7zm-193.4,-20c0,-8.1 6.6,-14.7 14.6,-14.7l69.5,0c8.1,0 14.6,6.6 14.6,14.7l0,20l-98.7,0l0,-20zm135,324.6l0,0.4l0,0.4c0,8.1 -6.6,14.7 -14.6,14.7l-141,0c-8.1,0 -14.6,-6.6 -14.6,-14.7l0,-0.4l0,-0.4l-23.7,-289.9l217.2,0l-23.3,289.9z"/>
  <rect fill="#e48762" id="svg_4" y="160" x="249" width="14" height="241"/>
  <polygon fill="#e48762" id="svg_5" points="320,160 305.4,160 294.7,401 309.3,401   "/>
  <polygon fill="#e48762" id="svg_6" points="206.5,160 192,160 202.7,401 217.3,401   "/>
 </g>
</svg>